<svg width="32" height="32" viewBox="0 0 32 32" fill="none" xmlns="http://www.w3.org/2000/svg">
<path opacity="0.3" d="M18 24.1816C18 25.1858 17.1046 26 16 26C14.8954 26 14 25.1858 14 24.1816V21.5578C14 20.6273 15.0695 20 16 20C16.9305 20 18 20.6273 18 21.5578V24.1816ZM24.1816 14C25.1858 14 26 14.8954 26 16C26 17.1046 25.1858 18 24.1816 18H21.5585C20.6281 18 20 16.9304 20 16C20 15.0696 20.6281 14 21.5585 14H24.1816ZM10.4415 14C11.3719 14 12 15.0696 12 16C12 16.9304 11.3719 18 10.4415 18H7.81836C6.81421 18 6 17.1046 6 16C6 14.8954 6.81421 14 7.81836 14H10.4415ZM16 6C17.1046 6 18 6.81421 18 7.81836V10.4415C18 11.3719 16.9304 12 16 12C15.0696 12 14 11.3719 14 10.4415V7.81836C14 6.81421 14.8954 6 16 6Z" fill="white"/>
<circle cx="16" cy="16" r="2" fill="white"/>
</svg>
